<?xml version="1.0" standalone="no"?>
<!DOCTYPE svg PUBLIC "-//W3C//DTD SVG 20010904//EN"
 "http://www.w3.org/TR/2001/REC-SVG-20010904/DTD/svg10.dtd">
<svg version="1.0" xmlns="http://www.w3.org/2000/svg"
 width="767.000000pt" height="773.000000pt" viewBox="0 0 767.000000 773.000000"
 preserveAspectRatio="xMidYMid meet">

<g transform="translate(0.000000,773.000000) scale(0.100000,-0.100000)"
fill="#000000" stroke="none">
<path d="M4314 7670 c-69 -35 -106 -124 -179 -435 l-7 -30 -10 25 c-51 128
-110 313 -132 411 l-6 26 -85 -13 c-139 -23 -191 -52 -226 -129 -35 -76 -19
-155 31 -155 28 0 33 16 15 49 -28 55 -17 115 29 153 27 22 101 48 139 48 27
0 28 -2 22 -32 -92 -454 -156 -575 -263 -499 -48 33 -69 27 -62 -19 5 -35 71
-56 130 -40 44 12 94 63 120 125 10 24 38 120 61 214 l43 172 66 -193 c37
-106 80 -220 95 -253 28 -60 28 -60 35 -30 4 17 22 91 39 165 42 176 88 323
115 363 22 33 46 38 115 26 15 -3 27 2 35 14 9 15 7 22 -13 38 -30 24 -56 24
-107 -1z"/>
<path d="M3957 6810 c-8 -43 -67 -450 -67 -467 0 -7 -22 -14 -52 -17 -29 -3
-100 -10 -158 -17 -492 -51 -983 -270 -1352 -603 l-103 -94 -187 186 c-103
102 -191 183 -195 179 -4 -4 77 -92 180 -195 l188 -188 -27 -24 c-58 -54 -199
-231 -275 -345 -235 -353 -382 -782 -407 -1185 l-7 -105 -140 -21 c-77 -11
-185 -26 -240 -34 -55 -7 -108 -16 -118 -19 -10 -4 86 -22 215 -40 128 -18
245 -35 261 -38 26 -5 27 -8 27 -67 0 -203 76 -545 176 -791 109 -265 254
-496 458 -725 l75 -85 -186 -187 c-103 -103 -185 -190 -182 -192 3 -3 88 77
190 179 101 102 186 185 189 185 3 0 19 -13 35 -28 345 -319 732 -526 1160
-622 135 -30 346 -60 426 -60 l46 0 32 -232 c18 -128 36 -246 40 -262 5 -20
17 41 40 205 18 129 35 246 38 260 5 25 7 26 101 33 547 38 1090 270 1485 637
l79 72 188 -188 c104 -104 193 -186 197 -182 4 4 -78 93 -182 197 l-188 188
52 55 c252 264 467 645 571 1014 38 133 76 353 86 490 7 100 7 102 33 107 14
3 94 15 176 27 83 11 188 26 235 33 103 15 104 14 -200 57 -124 17 -228 34
-231 37 -3 4 -11 68 -18 142 -48 534 -259 1019 -622 1429 l-82 93 189 189
c104 104 184 189 179 189 -6 0 -93 -83 -194 -184 l-185 -185 -69 62 c-192 172
-377 298 -592 403 -286 139 -562 215 -884 243 -63 6 -116 12 -118 15 -3 2 -20
112 -39 243 -41 289 -39 276 -47 233z m3 -1375 l0 -1265 -25 0 c-40 0 -118
-30 -157 -61 l-36 -29 -69 71 c-37 39 -68 76 -67 83 1 27 349 2466 352 2466 1
0 2 -569 2 -1265z m-210 823 c0 -18 3 -42 6 -54 5 -19 -2 -21 -119 -38 -193
-27 -425 -90 -575 -158 -35 -15 -70 -28 -77 -28 -11 0 -52 87 -44 95 2 2 49
21 104 43 180 71 344 117 525 146 83 14 110 18 168 25 7 0 12 -11 12 -31z
m610 6 c140 -21 348 -78 492 -135 70 -28 130 -54 132 -58 7 -10 -31 -91 -43
-91 -5 0 -45 15 -89 34 -164 70 -399 133 -589 157 -101 13 -98 10 -87 81 7 43
-14 42 184 12z m-500 -111 c0 -5 -12 -93 -27 -198 -22 -149 -29 -182 -35 -155
-5 23 -6 12 -4 -33 3 -56 -26 -303 -36 -312 -2 -1 -17 -6 -34 -9 l-30 -7 -34
180 c-19 99 -36 179 -38 177 -2 -3 8 -79 23 -171 14 -91 25 -171 23 -177 -3
-7 -28 -17 -57 -24 -62 -14 -50 -34 -111 188 -24 87 -45 156 -47 154 -2 -2 15
-77 38 -167 23 -90 42 -170 43 -178 1 -12 -21 -23 -90 -45 -19 -6 -26 8 -89
174 -38 99 -70 179 -72 177 -2 -2 24 -81 57 -174 33 -94 60 -175 60 -181 0
-10 -100 -55 -107 -48 -2 2 -41 81 -87 175 -126 258 -126 243 -1 -31 36 -78
65 -147 65 -153 0 -10 -80 -55 -98 -55 -5 0 -52 74 -106 165 -54 91 -100 165
-103 165 -2 0 -2 -3 0 -7 17 -28 187 -335 187 -337 0 -5 -101 -68 -104 -65 -1
2 -47 66 -100 142 -130 182 -146 188 -22 8 53 -79 99 -148 102 -155 4 -10 -74
-76 -89 -76 -3 0 -67 72 -143 160 -75 88 -139 160 -141 160 -4 0 63 -85 194
-243 40 -48 73 -91 72 -95 0 -4 -13 -17 -28 -29 l-27 -22 -140 105 c-76 58
-157 122 -179 142 -36 33 -35 32 6 -13 26 -28 90 -108 142 -179 l96 -128 -22
-29 c-12 -15 -24 -28 -27 -28 -3 -1 -54 40 -115 90 -128 105 -239 191 -210
162 11 -11 86 -77 166 -145 l147 -125 -35 -44 c-19 -24 -40 -44 -47 -43 -6 1
-76 46 -156 101 -262 180 -273 179 -20 -2 91 -65 167 -119 169 -121 2 -2 -11
-26 -29 -53 l-32 -51 -31 17 c-24 12 -293 163 -339 190 -5 2 -8 2 -8 0 0 -5
330 -204 353 -213 14 -5 12 -13 -11 -60 -14 -30 -30 -54 -34 -54 -5 0 -83 34
-175 75 -91 42 -167 74 -169 72 -2 -2 71 -39 162 -82 91 -44 168 -83 170 -87
6 -9 -36 -108 -46 -108 -4 0 -79 25 -165 55 -87 31 -160 54 -162 52 -2 -2 65
-30 149 -61 84 -31 159 -60 166 -65 12 -7 10 -18 -23 -108 -3 -8 -61 3 -196
38 -105 27 -193 48 -195 46 -2 -2 83 -27 189 -57 105 -29 193 -54 194 -55 2
-1 -3 -27 -9 -58 -10 -47 -16 -57 -33 -57 -11 0 -99 14 -195 30 -96 16 -182
29 -190 29 -21 -1 26 -11 228 -49 l174 -33 -6 -30 c-3 -17 -8 -32 -10 -34 -10
-11 -211 -35 -286 -35 -52 0 -73 -3 -55 -7 21 -5 -26 -15 -164 -34 -106 -16
-195 -27 -196 -25 -7 7 24 261 45 363 32 160 109 386 184 538 342 697 1019
1185 1771 1276 184 23 195 23 195 14z m435 -19 c389 -53 788 -225 1105 -478
186 -148 411 -404 532 -607 181 -300 299 -662 324 -999 l7 -93 -29 5 c-16 4
-105 17 -199 30 -135 18 -162 24 -130 29 27 4 10 6 -50 7 -86 0 -273 23 -295
37 -5 3 -10 19 -10 35 l0 28 175 33 c96 18 173 35 171 37 -3 2 -77 -8 -165
-22 -88 -14 -167 -26 -174 -26 -12 0 -45 106 -35 115 1 1 81 25 177 51 96 26
170 49 165 51 -5 1 -85 -17 -179 -41 l-170 -44 -18 56 c-9 31 -14 59 -10 63 5
4 90 37 190 75 101 37 182 69 180 71 -2 1 -86 -26 -188 -62 -101 -36 -188 -65
-192 -65 -11 0 -49 91 -43 105 2 6 87 51 190 100 102 49 184 90 183 92 -2 1
-88 -35 -191 -82 -103 -47 -191 -85 -197 -85 -8 0 -63 100 -57 104 2 2 66 40
143 86 77 46 145 87 150 93 13 13 19 16 -158 -82 -82 -46 -150 -81 -151 -79
-25 34 -56 102 -50 108 5 4 77 56 159 115 140 100 192 140 155 120 -16 -9
-127 -85 -254 -173 l-79 -56 -29 35 c-54 63 -59 54 98 189 242 207 202 183
-80 -48 -64 -54 -79 -62 -92 -51 -43 35 -40 44 64 182 55 73 109 141 121 151
12 11 21 24 21 30 0 5 -17 -6 -37 -26 -21 -19 -93 -77 -161 -128 l-124 -92
-28 27 -29 27 93 112 c136 164 172 211 160 203 -6 -4 -67 -72 -135 -152 -68
-80 -127 -145 -130 -145 -3 0 -27 16 -53 36 -42 32 -46 38 -33 52 23 28 228
332 223 332 -2 0 -59 -77 -126 -170 l-121 -170 -28 16 c-15 9 -38 24 -51 34
l-24 18 64 113 c35 63 76 138 92 167 17 28 28 52 25 52 -2 0 -47 -71 -98 -157
-51 -87 -94 -160 -96 -162 -2 -3 -28 7 -58 22 l-54 26 39 88 c21 48 57 128 79
177 23 49 40 91 38 93 -2 2 -41 -76 -87 -172 -46 -96 -85 -175 -86 -175 -1 0
-28 10 -59 22 -43 16 -54 25 -50 37 24 59 114 326 111 328 -2 2 -31 -72 -66
-164 -34 -93 -63 -169 -64 -170 -2 -2 -108 29 -115 34 -2 1 15 75 39 163 45
176 50 231 6 73 -15 -54 -37 -128 -47 -164 l-20 -66 -56 13 c-30 7 -56 14 -58
16 -2 2 10 82 26 178 16 96 28 181 27 190 -2 8 -18 -68 -37 -170 -18 -102 -37
-188 -40 -193 -4 -4 -21 -5 -37 -1 l-30 6 -17 126 c-10 70 -16 161 -13 202 2
50 1 60 -3 30 l-7 -45 -7 35 c-12 57 -47 309 -47 336 0 29 -3 29 225 -2z
m-1700 -326 l28 -41 -29 -21 c-37 -27 -148 -118 -219 -180 l-56 -49 -37 37
-37 36 40 38 c86 80 262 221 276 222 4 0 19 -19 34 -42z m2839 -5 c64 -49 106
-85 195 -165 l54 -49 -34 -35 c-18 -19 -37 -34 -42 -34 -5 0 -43 32 -84 70
-42 39 -107 94 -144 122 -38 28 -69 54 -69 57 0 10 50 81 57 81 4 0 34 -21 67
-47z m-3164 -268 l33 -34 -59 -67 c-52 -58 -78 -90 -171 -207 l-22 -28 -40 28
c-22 15 -40 30 -41 33 0 17 244 310 259 310 4 0 22 -16 41 -35z m3512 -53 c43
-48 100 -117 128 -154 l50 -67 -33 -24 c-17 -13 -37 -27 -44 -31 -7 -4 -34 23
-68 69 -31 41 -88 108 -127 150 l-71 76 33 35 c19 18 39 34 44 33 6 0 46 -40
88 -87z m-2030 -97 c-4 -31 -8 -35 -41 -41 -252 -43 -513 -162 -706 -322 -56
-47 -60 -49 -82 -35 -13 9 -23 19 -23 24 0 14 107 101 198 162 157 104 330
178 522 222 141 32 137 32 132 -10z m528 15 c195 -40 399 -125 562 -236 86
-59 188 -142 188 -153 0 -3 -12 -14 -25 -24 -24 -17 -26 -17 -47 4 -30 28
-150 117 -213 157 -121 75 -325 155 -480 187 -44 9 -81 17 -82 19 -7 7 -15 66
-8 66 4 0 51 -9 105 -20z m-540 -89 c0 -22 -111 -789 -117 -814 l-8 -29 -310
232 c-170 128 -314 236 -319 241 -13 12 14 40 99 103 160 120 359 211 559 256
99 22 96 22 96 11z m565 -17 c212 -50 462 -176 610 -307 l40 -35 -25 -20 c-72
-57 -616 -462 -620 -462 -5 0 -121 799 -120 833 0 19 -4 19 115 -9z m-726
-1058 c-8 -8 -204 -34 -211 -27 -10 10 -703 935 -713 951 -4 8 202 -196 460
-453 257 -257 466 -469 464 -471z m1231 469 c-288 -288 -467 -460 -471 -452
-3 6 -12 52 -18 101 -10 72 -10 92 1 102 17 17 942 713 948 714 3 0 -204 -209
-460 -465z m-2006 117 c-155 -192 -263 -413 -313 -645 -12 -53 -21 -99 -21
-102 0 -3 -16 -5 -35 -5 -33 0 -34 1 -29 33 51 290 168 544 354 771 l45 55 23
-25 22 -26 -46 -56z m2379 30 c116 -138 216 -321 275 -502 33 -98 62 -224 62
-264 0 -21 -3 -23 -32 -17 -31 6 -32 9 -49 91 -46 232 -174 497 -320 664 -22
24 -39 47 -39 51 0 5 32 54 37 55 1 0 31 -35 66 -78z m-3378 11 c19 -9 35 -22
35 -29 0 -6 -11 -36 -24 -66 -71 -161 -135 -391 -162 -587 -9 -64 -16 -116
-17 -117 -1 -1 -24 2 -52 5 l-50 6 3 40 c6 79 34 232 64 350 47 182 135 415
157 415 6 0 26 -8 46 -17z m4393 -30 c63 -140 117 -309 151 -472 23 -107 47
-279 40 -285 -2 -2 -26 -6 -54 -7 l-50 -4 -8 79 c-17 169 -76 399 -152 589
l-43 107 36 20 c20 10 42 19 48 20 6 0 20 -21 32 -47z m-1018 -139 c72 -103
145 -252 184 -373 35 -108 62 -228 54 -236 -4 -5 -838 112 -843 117 -1 2 106
148 239 325 l241 323 38 -43 c20 -23 60 -74 87 -113z m-2065 -170 c130 -174
234 -318 232 -321 -4 -4 -815 -123 -838 -123 -11 0 19 139 52 240 18 52 54
138 80 192 68 136 198 326 225 327 6 1 118 -141 249 -315z m2490 -489 l1210
-173 -1267 -1 -1267 -1 -12 61 c-8 38 -25 81 -46 112 l-34 50 68 69 c63 63 69
67 103 62 19 -3 580 -83 1245 -179z m-1558 90 c64 -19 136 -82 169 -148 23
-44 26 -60 22 -132 -3 -75 -6 -86 -41 -138 -57 -87 -133 -127 -241 -127 -102
1 -194 58 -241 151 -32 63 -39 114 -26 182 35 164 196 260 358 212z m-393
-311 c7 -52 29 -105 62 -150 l23 -31 -69 -68 -70 -69 -1212 172 c-667 95
-1229 177 -1248 181 -20 5 512 9 1236 10 l1271 1 7 -46z m-1604 -115 c3 -1
-15 -5 -40 -9 -32 -6 -24 -6 29 -3 40 2 131 -4 201 -13 l128 -17 6 -30 c4 -17
3 -34 -1 -38 -5 -3 -91 -21 -192 -40 -102 -18 -180 -34 -174 -36 5 -2 90 10
189 26 98 16 182 27 185 23 4 -4 11 -31 16 -60 l10 -52 -66 -19 c-36 -11 -119
-34 -183 -52 -65 -18 -116 -34 -114 -36 2 -2 82 16 178 41 96 25 179 46 184
46 9 0 49 -110 42 -115 -2 -1 -85 -33 -185 -70 -101 -38 -181 -70 -180 -72 2
-1 75 22 163 53 235 83 208 80 233 20 11 -28 21 -54 21 -57 0 -3 -79 -43 -175
-89 -96 -46 -174 -85 -172 -87 2 -2 82 33 178 76 96 44 177 77 180 73 4 -4 18
-28 33 -53 l26 -46 -190 -113 c-104 -62 -190 -115 -190 -117 0 -2 24 9 53 25
249 141 322 182 329 182 7 0 68 -84 68 -94 0 -3 -70 -55 -155 -116 -85 -61
-155 -113 -155 -116 0 -3 73 45 161 105 l162 110 33 -44 c19 -24 34 -48 34
-52 0 -5 -67 -67 -150 -137 -82 -70 -153 -133 -157 -139 -4 -7 18 8 48 33 152
128 268 220 276 220 5 0 20 -11 32 -24 l23 -25 -87 -118 c-49 -65 -109 -143
-134 -173 l-45 -55 44 42 c51 47 286 223 298 223 5 0 19 -11 32 -25 l23 -25
-39 -47 c-120 -144 -215 -263 -211 -263 3 0 62 66 132 148 70 81 130 148 133
149 4 1 27 -15 51 -36 l44 -38 -117 -171 c-65 -95 -115 -172 -113 -172 3 0 58
74 123 165 65 91 122 165 127 165 5 0 28 -14 53 -31 40 -27 43 -32 33 -52 -7
-12 -42 -76 -79 -142 -85 -152 -92 -165 -87 -165 3 0 46 71 97 158 51 86 94
158 96 160 4 6 104 -48 104 -57 0 -5 -36 -89 -81 -187 -109 -242 -107 -244 8
-13 l98 196 53 -21 c28 -11 52 -26 52 -32 0 -6 -23 -75 -50 -154 -28 -78 -49
-145 -47 -147 2 -2 28 61 57 139 29 79 56 147 60 151 4 5 33 1 64 -9 42 -13
55 -22 52 -33 -26 -87 -97 -374 -94 -377 2 -2 28 83 58 189 29 105 54 194 56
195 1 2 28 -1 58 -8 46 -9 56 -15 56 -32 0 -11 -14 -101 -30 -200 -17 -100
-29 -185 -27 -191 1 -5 9 21 15 59 7 38 24 131 38 206 l26 138 29 0 c21 0 32
-6 39 -22 14 -36 37 -237 34 -303 -2 -45 -1 -53 5 -30 5 17 9 25 10 19 0 -7
13 -91 27 -189 14 -97 23 -180 19 -183 -10 -10 -239 17 -367 44 -933 197
-1648 950 -1797 1894 -17 103 -27 228 -22 250 1 4 366 -45 381 -51z m4191
-164 c-73 -499 -291 -939 -643 -1295 -383 -388 -908 -635 -1435 -675 l-93 -8
0 24 c0 26 35 272 47 329 l7 35 7 -45 c5 -30 6 -17 3 40 -2 51 3 133 14 205
l17 120 35 3 35 3 29 -162 c17 -90 32 -157 34 -151 3 10 -28 224 -43 298 -4
19 2 23 52 33 43 8 58 8 64 -1 4 -6 26 -81 50 -165 23 -84 44 -151 46 -149 2
2 -14 76 -37 164 -22 89 -40 163 -40 166 0 7 110 39 115 34 2 -2 31 -77 65
-168 34 -90 66 -171 71 -179 13 -19 16 -29 -61 191 l-59 168 47 20 c25 11 52
19 59 18 7 -2 52 -84 99 -183 48 -99 90 -184 95 -190 5 -5 -29 76 -77 180 -47
105 -88 195 -90 200 -3 6 20 23 50 37 l55 27 97 -162 c90 -150 150 -240 92
-137 -107 189 -168 301 -168 308 0 8 86 62 98 62 4 0 61 -77 127 -171 66 -94
124 -173 129 -176 5 -3 -48 77 -117 179 l-125 185 49 37 50 37 26 -31 c145
-173 255 -300 260 -300 2 0 -51 68 -119 151 -167 205 -155 185 -128 214 13 14
27 25 30 25 12 0 263 -190 315 -239 l50 -46 -46 50 c-40 43 -210 264 -233 303
-8 13 28 62 44 62 4 0 56 -39 115 -87 257 -209 271 -214 38 -14 l-143 122 37
49 36 49 169 -115 c92 -63 168 -113 168 -110 0 2 -70 55 -155 117 -86 62 -158
116 -161 121 -6 10 47 98 59 98 6 0 256 -137 360 -197 4 -2 7 -2 7 0 0 3 -71
46 -157 97 -87 51 -168 99 -181 106 l-22 15 26 52 c15 28 27 53 29 55 1 1 86
-36 190 -83 103 -48 189 -85 190 -83 2 2 -79 43 -181 92 -101 49 -184 95 -184
101 0 7 9 33 20 58 l20 46 157 -55 c86 -30 158 -53 160 -51 2 3 -65 30 -149
62 -84 31 -154 58 -156 60 -4 4 28 115 34 115 3 0 77 -18 166 -40 88 -23 162
-39 164 -37 2 2 -65 23 -151 47 -85 24 -159 46 -165 50 -7 4 -6 25 1 64 11 54
13 57 38 52 90 -18 344 -57 347 -53 4 4 -133 31 -294 59 l-73 12 3 36 3 35
115 18 c70 10 150 16 205 13 58 -2 74 -1 45 4 -25 4 -43 8 -40 9 3 1 88 15
190 30 l185 27 3 -40 c2 -21 -6 -103 -17 -181z m-4601 105 c0 -30 33 -227 51
-305 26 -115 81 -285 124 -385 l33 -78 -46 -20 c-26 -12 -50 -18 -54 -14 -12
13 -75 176 -108 277 -37 117 -74 278 -89 390 -6 44 -13 92 -16 107 -3 21 0 28
18 31 43 8 87 7 87 -3z m824 -6 c9 -8 16 -25 16 -37 0 -46 60 -246 102 -342
51 -115 133 -250 212 -349 53 -66 54 -69 39 -92 -8 -13 -19 -24 -24 -24 -10 0
-100 112 -156 195 -117 172 -209 404 -247 628 -6 34 -5 37 18 37 13 0 32 -7
40 -16z m3056 -6 c-1 -37 -36 -189 -65 -274 -36 -108 -102 -244 -166 -344 -53
-83 -153 -212 -169 -218 -5 -2 -16 8 -26 22 -16 26 -16 27 39 93 68 84 133
185 182 282 46 93 110 284 127 378 12 72 17 79 61 82 11 1 17 -6 17 -21z m849
15 c22 -6 23 -8 16 -72 -18 -181 -77 -413 -156 -616 -53 -137 -48 -131 -100
-105 -24 13 -45 23 -46 24 -2 1 13 40 32 86 85 200 165 517 165 653 0 35 2 37
33 37 17 0 43 -3 56 -7z m-959 -80 c-19 -104 -77 -268 -132 -376 -73 -142
-210 -329 -228 -311 -5 5 -115 151 -245 324 l-236 315 423 61 c233 33 425 59
427 58 2 -2 -2 -34 -9 -71z m-2467 10 c265 -37 406 -61 403 -68 -6 -17 -467
-630 -476 -633 -11 -4 -102 113 -164 211 -88 141 -165 338 -194 496 -8 44 -7
51 7 51 9 1 199 -25 424 -57z m1325 -16 c28 -30 52 -64 52 -75 0 -31 -350
-2476 -355 -2481 -3 -2 -5 568 -5 1266 l0 1271 43 7 c50 8 118 37 154 64 31
25 40 21 111 -52z m643 -519 c195 -259 355 -474 357 -478 1 -3 -206 201 -461
455 -254 253 -461 462 -460 464 4 5 145 28 184 30 23 1 66 -51 380 -471z
m-1307 327 c9 -54 14 -100 13 -101 -18 -15 -943 -706 -951 -710 -6 -4 198 203
454 460 256 256 466 463 467 459 2 -5 9 -53 17 -108z m82 -564 c30 -216 53
-396 50 -398 -19 -20 -296 65 -426 130 -97 49 -235 139 -298 194 l-42 38 322
241 c317 237 323 241 330 215 5 -14 33 -203 64 -420z m937 213 c166 -125 308
-232 316 -240 12 -11 9 -17 -19 -41 -117 -100 -272 -192 -424 -253 -80 -32
-255 -80 -291 -80 -20 0 -18 13 40 420 33 231 63 420 68 420 4 0 143 -102 310
-226z m-1625 -315 c107 -94 306 -207 462 -263 41 -14 122 -37 180 -50 103 -23
105 -24 111 -55 6 -28 4 -31 -20 -31 -38 0 -214 44 -301 76 -158 57 -333 156
-468 266 l-72 60 22 18 c13 11 27 19 31 20 5 0 30 -18 55 -41z m2013 22 l23
-18 -35 -30 c-72 -63 -96 -82 -179 -135 -117 -76 -227 -130 -351 -172 -106
-35 -284 -74 -294 -64 -3 2 -2 18 1 35 5 28 10 30 77 41 96 17 286 81 384 130
87 44 236 142 298 196 22 19 43 35 46 36 4 0 17 -8 30 -19z m-2924 -248 c46
-63 159 -196 187 -222 34 -32 33 -40 -7 -79 l-33 -32 -65 67 c-62 65 -199 235
-199 247 0 7 72 56 82 56 4 0 20 -17 35 -37z m3828 15 c19 -13 35 -28 35 -34
0 -20 -118 -170 -214 -271 l-40 -43 -37 36 -37 36 78 89 c43 49 98 116 122
149 23 32 46 60 51 60 4 0 23 -10 42 -22z m-3382 -472 l88 -68 -17 -27 c-44
-68 -34 -68 -123 -1 -45 34 -116 95 -159 135 l-77 73 38 37 39 37 61 -59 c34
-32 102 -90 150 -127z m3090 55 c-32 -30 -103 -90 -157 -134 l-99 -79 -18 24
c-24 31 -43 67 -38 71 73 54 188 148 234 190 l60 55 38 -36 38 -37 -58 -54z
m-2498 -391 c145 -57 342 -108 505 -130 136 -18 125 -12 122 -70 -4 -47 -6
-50 -30 -50 -53 0 -279 41 -389 71 -141 37 -360 118 -391 144 -1 1 6 23 17 49
l20 46 38 -16 c21 -8 70 -28 108 -44z m1843 15 c12 -25 22 -47 22 -49 0 -8
-172 -76 -277 -109 -171 -55 -510 -123 -528 -106 -3 3 -6 27 -7 54 l-3 49 100
12 c55 7 143 23 195 34 111 25 343 101 415 135 28 13 52 24 56 24 3 1 15 -19
27 -44z"/>
<path d="M3735 6076 c-30 -45 16 -91 61 -61 28 18 31 46 8 69 -22 23 -51 20
-69 -8z"/>
<path d="M3540 6050 c-22 -42 13 -80 60 -65 25 8 37 50 20 70 -19 22 -67 19
-80 -5z"/>
<path d="M3363 6023 c-16 -6 -17 -55 -1 -71 7 -7 21 -12 33 -12 12 0 26 5 33
12 7 7 12 21 12 33 0 37 -36 55 -77 38z"/>
<path d="M3180 5960 c-24 -24 -25 -43 -4 -64 21 -21 47 -20 67 2 23 25 21 48
-5 66 -29 20 -34 20 -58 -4z"/>
<path d="M3781 5894 c0 -11 3 -14 6 -6 3 7 2 16 -1 19 -3 4 -6 -2 -5 -13z"/>
<path d="M2997 5879 c-20 -28 -10 -58 21 -66 31 -7 56 7 60 36 7 48 -53 70
-81 30z"/>
<path d="M3612 5830 c0 -14 2 -19 5 -12 2 6 2 18 0 25 -3 6 -5 1 -5 -13z"/>
<path d="M2831 5801 c-7 -5 -13 -21 -13 -36 0 -32 17 -46 51 -43 34 4 48 30
33 62 -12 27 -44 34 -71 17z"/>
<path d="M2667 5692 c-10 -10 -17 -24 -17 -30 0 -15 36 -52 50 -52 15 0 50 38
50 54 0 20 -28 46 -49 46 -10 0 -25 -8 -34 -18z"/>
<path d="M2508 5564 c-16 -34 0 -58 39 -62 39 -4 60 34 37 67 -21 30 -61 27
-76 -5z"/>
<path d="M2372 5448 c-28 -28 -7 -78 33 -78 27 0 45 18 45 45 0 27 -18 45 -45
45 -12 0 -26 -5 -33 -12z"/>
<path d="M2240 5306 c-15 -19 -9 -56 11 -69 9 -5 28 -7 42 -3 48 12 32 86 -19
86 -12 0 -27 -7 -34 -14z"/>
<path d="M2126 5154 c-9 -8 -16 -22 -16 -30 0 -16 35 -54 50 -54 15 0 50 38
50 53 0 18 -32 47 -53 47 -8 0 -23 -7 -31 -16z"/>
<path d="M2040 5003 c-20 -8 -30 -24 -30 -51 0 -30 39 -49 69 -33 28 15 29 66
2 81 -11 5 -21 10 -23 9 -2 0 -10 -3 -18 -6z"/>
<path d="M1940 4822 c-18 -14 -21 -25 -16 -45 7 -31 48 -46 71 -27 22 18 19
67 -4 80 -25 13 -25 13 -51 -8z"/>
<path d="M1868 4649 c-25 -14 -24 -65 1 -79 11 -5 24 -10 30 -10 16 0 41 30
41 50 0 21 -25 50 -43 50 -7 0 -20 -5 -29 -11z"/>
<path d="M1811 4464 c-30 -21 -27 -61 5 -76 36 -17 59 0 59 42 0 40 -31 57
-64 34z"/>
<path d="M1768 4279 c-26 -15 -23 -65 3 -80 50 -26 93 35 53 75 -18 18 -32 20
-56 5z"/>
<path d="M1742 4084 c-28 -19 -28 -45 -1 -70 19 -17 23 -17 47 -3 34 19 39 42
13 68 -25 25 -30 26 -59 5z"/>
<path d="M1948 4033 c6 -2 18 -2 25 0 6 3 1 5 -13 5 -14 0 -19 -2 -12 -5z"/>
<path d="M4122 6088 c-31 -31 5 -97 47 -83 24 7 38 51 24 74 -13 20 -54 26
-71 9z"/>
<path d="M4322 6064 c-39 -27 -23 -84 24 -84 46 0 59 60 19 86 -18 12 -24 11
-43 -2z"/>
<path d="M4502 6018 c-7 -7 -12 -21 -12 -33 0 -12 5 -26 12 -33 7 -7 21 -12
33 -12 12 0 26 5 33 12 7 7 12 21 12 33 0 12 -5 26 -12 33 -7 7 -21 12 -33 12
-12 0 -26 -5 -33 -12z"/>
<path d="M4691 5964 c-38 -27 -22 -84 25 -84 29 0 46 23 42 56 -4 34 -37 48
-67 28z"/>
<path d="M4862 5888 c-7 -7 -12 -21 -12 -33 0 -12 5 -26 12 -33 7 -7 21 -12
33 -12 12 0 26 5 33 12 7 7 12 21 12 33 0 12 -5 26 -12 33 -7 7 -21 12 -33 12
-12 0 -26 -5 -33 -12z"/>
<path d="M5032 5798 c-7 -7 -12 -21 -12 -33 0 -12 5 -26 12 -33 7 -7 21 -12
33 -12 12 0 26 5 33 12 7 7 12 21 12 33 0 12 -5 26 -12 33 -7 7 -21 12 -33 12
-12 0 -26 -5 -33 -12z"/>
<path d="M4471 5764 c0 -11 3 -14 6 -6 3 7 2 16 -1 19 -3 4 -6 -2 -5 -13z"/>
<path d="M5198 5699 c-22 -12 -23 -52 -2 -73 29 -30 74 -10 74 32 0 46 -32 65
-72 41z"/>
<path d="M5342 5578 c-7 -7 -12 -21 -12 -33 0 -29 19 -45 52 -45 25 0 48 23
48 49 0 33 -63 54 -88 29z"/>
<path d="M5480 5441 c-14 -27 -13 -37 6 -55 40 -40 101 3 75 53 -15 28 -66 29
-81 2z"/>
<path d="M5616 5304 c-19 -18 -20 -28 -6 -55 21 -39 90 -16 90 30 0 16 -30 41
-50 41 -10 0 -26 -7 -34 -16z"/>
<path d="M5736 5154 c-21 -21 -20 -47 3 -68 41 -37 97 14 66 60 -18 28 -46 31
-69 8z"/>
<path d="M5840 4990 c-25 -25 -25 -42 -2 -63 24 -22 45 -21 65 1 23 25 21 48
-5 66 -29 20 -34 20 -58 -4z"/>
<path d="M5684 4854 c-18 -14 -18 -15 4 -4 12 6 22 13 22 15 0 8 -5 6 -26 -11z"/>
<path d="M5930 4822 c-31 -25 -21 -69 17 -78 20 -5 31 -2 45 16 23 28 23 35
-2 60 -25 25 -32 25 -60 2z"/>
<path d="M6002 4648 c-22 -22 -14 -67 13 -80 46 -21 86 40 49 76 -18 19 -45
21 -62 4z"/>
<path d="M6060 4460 c-25 -25 -25 -42 0 -65 27 -24 68 -13 76 22 5 20 2 31
-16 45 -28 23 -35 23 -60 -2z"/>
<path d="M5888 4373 c7 -3 16 -2 19 1 4 3 -2 6 -13 5 -11 0 -14 -3 -6 -6z"/>
<path d="M6100 4270 c-11 -11 -20 -24 -20 -30 0 -15 38 -50 54 -50 20 0 46 28
46 50 0 22 -26 50 -46 50 -8 0 -23 -9 -34 -20z"/>
<path d="M5918 4203 c6 -2 18 -2 25 0 6 3 1 5 -13 5 -14 0 -19 -2 -12 -5z"/>
<path d="M6126 4084 c-9 -8 -16 -24 -16 -34 0 -20 25 -50 41 -50 27 0 49 22
49 50 0 44 -44 64 -74 34z"/>
<path d="M5963 4033 c9 -2 23 -2 30 0 6 3 -1 5 -18 5 -16 0 -22 -2 -12 -5z"/>
<path d="M3370 4933 c-33 -12 -50 -37 -50 -73 0 -72 76 -105 125 -55 40 39 32
96 -16 120 -30 16 -35 17 -59 8z"/>
<path d="M4510 4933 c-79 -29 -60 -153 24 -153 36 0 76 41 76 77 -1 53 -53 93
-100 76z"/>
<path d="M4913 4508 c-12 -6 -27 -24 -34 -41 -15 -36 1 -73 44 -97 24 -13 30
-13 54 0 43 24 59 61 44 97 -12 29 -47 54 -74 52 -7 0 -22 -5 -34 -11z"/>
<path d="M2925 4495 c-70 -69 25 -177 99 -113 38 32 39 83 2 115 -35 30 -71
29 -101 -2z"/>
<path d="M3899 4056 c-58 -21 -96 -53 -121 -104 -70 -143 28 -302 187 -302
120 0 204 86 205 208 0 68 -18 108 -68 154 -61 55 -131 70 -203 44z m152 -49
c99 -66 115 -187 36 -270 -76 -81 -201 -69 -271 26 -32 43 -30 150 4 195 53
72 163 95 231 49z"/>
<path d="M1729 3689 c-18 -34 3 -69 41 -69 38 0 59 35 41 69 -16 29 -66 29
-82 0z"/>
<path d="M1762 3508 c-28 -28 -7 -78 33 -78 27 0 45 18 45 45 0 27 -18 45 -45
45 -12 0 -26 -5 -33 -12z"/>
<path d="M1811 3324 c-38 -27 -22 -84 25 -84 29 0 46 23 42 56 -4 34 -37 48
-67 28z"/>
<path d="M1862 3138 c-28 -28 -7 -78 33 -78 27 0 45 18 45 45 0 27 -18 45 -45
45 -12 0 -26 -5 -33 -12z"/>
<path d="M1932 2958 c-7 -7 -12 -21 -12 -33 0 -46 57 -62 84 -24 31 45 -33 96
-72 57z"/>
<path d="M2022 2788 c-28 -28 -7 -78 33 -78 29 0 45 19 45 51 0 37 -51 54 -78
27z"/>
<path d="M2126 2624 c-33 -32 -13 -74 36 -74 40 0 59 41 33 70 -22 24 -48 26
-69 4z"/>
<path d="M2248 2479 c-46 -26 5 -104 51 -79 14 7 21 21 21 38 0 46 -32 65 -72
41z"/>
<path d="M2376 2334 c-9 -8 -16 -24 -16 -34 0 -20 25 -50 41 -50 27 0 49 22
49 50 0 44 -44 64 -74 34z"/>
<path d="M2516 2204 c-30 -30 -9 -84 33 -84 38 0 58 53 31 80 -24 24 -43 25
-64 4z"/>
<path d="M2666 2084 c-19 -18 -20 -28 -6 -55 16 -29 67 -26 81 5 23 50 -36 90
-75 50z"/>
<path d="M3281 1999 c-6 -18 -9 -34 -7 -36 2 -2 9 10 15 28 6 18 9 34 7 36 -2
2 -9 -10 -15 -28z"/>
<path d="M2830 1980 c-25 -25 -25 -32 -2 -60 14 -18 25 -21 45 -16 35 8 46 49
22 76 -23 25 -40 25 -65 0z"/>
<path d="M3000 1890 c-11 -11 -20 -24 -20 -30 0 -15 38 -50 53 -50 18 0 47 32
47 53 0 19 -27 47 -46 47 -8 0 -23 -9 -34 -20z"/>
<path d="M3180 1820 c-11 -11 -20 -26 -20 -33 0 -18 32 -47 52 -47 17 0 48 31
48 48 0 15 -36 52 -50 52 -5 0 -19 -9 -30 -20z"/>
<path d="M3368 1769 c-25 -14 -24 -65 1 -79 11 -5 24 -10 30 -10 16 0 41 30
41 50 0 21 -25 50 -43 50 -7 0 -20 -5 -29 -11z"/>
<path d="M3550 1720 c-24 -24 -25 -43 -4 -64 20 -20 48 -20 68 0 22 22 20 50
-6 68 -29 20 -34 20 -58 -4z"/>
<path d="M3735 1686 c-22 -33 -5 -66 33 -66 49 0 69 42 36 74 -23 23 -51 20
-69 -8z"/>
<path d="M6122 3698 c-7 -7 -12 -21 -12 -33 0 -12 5 -26 12 -33 7 -7 21 -12
33 -12 12 0 26 5 33 12 7 7 12 21 12 33 0 12 -5 26 -12 33 -7 7 -21 12 -33 12
-12 0 -26 -5 -33 -12z"/>
<path d="M6096 3504 c-21 -20 -20 -37 2 -57 35 -32 82 -15 82 28 0 43 -53 61
-84 29z"/>
<path d="M5868 3343 c7 -3 16 -2 19 1 4 3 -2 6 -13 5 -11 0 -14 -3 -6 -6z"/>
<path d="M6060 3320 c-25 -25 -25 -42 0 -65 27 -24 68 -13 76 22 5 20 2 31
-16 45 -28 23 -35 23 -60 -2z"/>
<path d="M6002 3138 c-7 -7 -12 -25 -12 -40 0 -51 81 -50 88 1 7 42 -46 69
-76 39z"/>
<path d="M5920 2950 c-27 -50 32 -92 73 -52 18 18 19 25 9 47 -15 32 -66 35
-82 5z"/>
<path d="M5830 2780 c-22 -41 13 -80 59 -65 48 15 31 85 -19 85 -19 0 -33 -7
-40 -20z"/>
<path d="M5732 2628 c-16 -16 -15 -53 2 -67 22 -19 68 -9 77 15 16 45 -46 85
-79 52z"/>
<path d="M5617 2472 c-24 -26 -21 -49 8 -68 23 -15 27 -15 50 0 30 19 32 46 7
69 -24 22 -45 21 -65 -1z"/>
<path d="M5484 2325 c-15 -23 -15 -27 0 -50 19 -30 46 -32 69 -7 22 24 21 45
-1 65 -26 24 -49 21 -68 -8z"/>
<path d="M5346 2204 c-21 -21 -20 -47 2 -67 25 -23 48 -21 66 5 20 29 20 34
-4 58 -24 24 -43 25 -64 4z"/>
<path d="M5190 2086 c-29 -36 13 -92 58 -75 25 9 31 56 10 77 -16 16 -53 15
-68 -2z"/>
<path d="M5038 1989 c-26 -15 -23 -65 3 -80 34 -18 69 3 69 40 0 42 -36 62
-72 40z"/>
<path d="M4471 1944 c0 -11 3 -14 6 -6 3 7 2 16 -1 19 -3 4 -6 -2 -5 -13z"/>
<path d="M4302 1920 c0 -14 2 -19 5 -12 2 6 2 18 0 25 -3 6 -5 1 -5 -13z"/>
<path d="M4862 1898 c-19 -19 -15 -66 7 -78 11 -5 24 -10 30 -10 18 0 41 31
41 55 0 37 -52 59 -78 33z"/>
<path d="M4686 1824 c-32 -31 -14 -84 29 -84 29 0 45 19 45 52 0 21 -6 31 -26
38 -32 13 -30 13 -48 -6z"/>
<path d="M4508 1769 c-25 -14 -24 -65 1 -79 11 -5 24 -10 30 -10 16 0 41 30
41 50 0 21 -25 50 -43 50 -7 0 -20 -5 -29 -11z"/>
<path d="M4316 1724 c-32 -31 -14 -84 29 -84 27 0 45 18 45 46 0 25 -24 54
-45 54 -7 0 -21 -7 -29 -16z"/>
<path d="M4122 1698 c-26 -26 -10 -78 23 -78 40 0 55 11 55 39 0 32 -16 51
-45 51 -12 0 -26 -5 -33 -12z"/>
<path d="M4900 3360 c-29 -29 -35 -66 -16 -96 35 -53 97 -53 132 0 45 70 -57
155 -116 96z"/>
<path d="M2925 3355 c-50 -49 -20 -129 49 -129 74 0 107 83 52 131 -35 30 -71
29 -101 -2z"/>
<path d="M3340 2940 c-12 -12 -20 -33 -20 -55 0 -22 8 -43 20 -55 12 -12 33
-20 55 -20 68 0 98 68 54 124 -26 33 -79 36 -109 6z"/>
<path d="M4480 2940 c-12 -12 -20 -33 -20 -55 0 -72 86 -104 129 -49 28 35 26
69 -4 99 -30 31 -77 33 -105 5z"/>
<path d="M1816 6553 c-4 -4 9 -21 29 -38 29 -25 38 -43 54 -105 10 -41 21
-104 24 -140 l7 -65 -46 50 c-25 28 -65 76 -89 109 l-45 58 0 -45 c0 -24 9
-90 21 -146 27 -134 25 -144 -24 -102 -41 37 -81 99 -91 144 -6 25 -9 27 -22
16 -25 -21 -54 -86 -54 -122 0 -37 32 -87 56 -87 21 0 17 12 -13 36 -30 24
-35 72 -12 115 12 24 13 23 26 -18 17 -50 176 -208 181 -180 3 14 -29 205 -44
267 -5 18 19 -2 84 -70 l91 -95 1 44 c0 61 -28 242 -46 293 -22 64 -65 103
-88 81z"/>
<path d="M6074 6367 c-18 -16 -25 -30 -21 -40 8 -20 27 -23 27 -4 0 43 74 60
123 28 l28 -18 -33 -25 c-48 -36 -149 -94 -192 -109 -43 -16 -67 -5 -76 31 -7
29 -25 37 -34 15 -4 -11 5 -27 24 -47 26 -26 36 -30 67 -25 30 5 113 48 202
106 21 13 19 7 -18 -67 -47 -94 -85 -186 -74 -179 255 158 285 169 313 117 8
-16 6 -18 -24 -18 -54 0 -116 -39 -116 -74 0 -28 23 -21 45 15 28 44 78 56
129 32 46 -22 49 -20 -97 -101 -83 -47 -102 -54 -130 -48 -31 6 -30 5 33 -61
36 -37 75 -78 87 -91 37 -40 114 -25 88 16 -5 8 -15 5 -30 -10 l-23 -22 -18
27 c-11 15 -34 44 -52 65 l-33 39 61 31 62 31 25 -23 c17 -16 22 -29 18 -45
-7 -29 3 -29 40 3 23 20 25 24 9 20 -14 -4 -28 3 -49 24 -16 16 -27 31 -24 33
2 2 25 16 51 31 40 23 50 26 60 14 60 -65 61 -67 48 -83 -16 -19 -1 -19 27 0
21 14 20 16 -50 84 -40 37 -82 74 -95 80 -18 10 -21 15 -12 26 16 19 -25 55
-62 55 -30 0 -104 -34 -170 -78 -21 -14 -40 -23 -42 -21 -5 6 62 149 85 181
10 14 19 31 19 36 0 5 -22 24 -48 41 -60 38 -109 41 -148 8z"/>
<path d="M1526 6198 c-27 -38 -19 -79 34 -171 28 -48 50 -90 50 -93 0 -3 -48
20 -107 50 -58 31 -110 56 -115 56 -19 0 -68 -95 -68 -132 0 -56 63 -114 77
-72 2 6 -8 16 -22 22 -41 19 -51 54 -28 98 11 21 24 39 29 41 11 4 127 -185
139 -224 10 -35 -3 -60 -35 -72 -36 -12 -39 -31 -6 -31 15 0 33 11 46 27 31
39 22 76 -44 190 -31 52 -52 93 -48 91 4 -2 30 -15 57 -29 71 -38 176 -81 182
-75 3 2 -20 45 -50 94 -89 143 -104 192 -67 212 23 12 27 40 6 40 -8 0 -22
-10 -30 -22z"/>
<path d="M914 4216 c-3 -8 -1 -31 5 -53 6 -21 11 -49 11 -63 0 -30 -56 -151
-101 -218 -30 -44 -170 -225 -192 -247 -14 -14 -1 288 18 409 8 55 13 101 11
103 -9 10 -108 -118 -227 -294 -72 -106 -134 -195 -139 -198 -14 -9 -23 81
-17 179 5 96 29 178 74 249 14 22 23 41 20 43 -6 6 -140 -14 -173 -26 -16 -6
-45 -22 -65 -36 -85 -58 -124 -224 -53 -224 27 0 32 22 13 64 -31 67 48 156
160 181 l32 7 -30 -49 c-46 -74 -55 -135 -48 -313 4 -85 10 -168 15 -185 8
-30 9 -29 100 94 51 68 127 178 169 243 42 65 77 117 79 115 2 -2 -1 -43 -6
-93 -11 -108 -19 -404 -11 -403 9 1 147 159 214 246 183 237 252 402 196 470
-15 17 -48 17 -55 -1z"/>
<path d="M7390 4140 c-140 -5 -197 -11 -234 -25 -55 -20 -115 -76 -142 -133
-19 -41 -30 -127 -20 -166 9 -35 40 -51 60 -31 14 14 13 21 -6 71 -18 47 -19
60 -9 94 22 74 97 138 179 153 24 5 32 3 32 -8 0 -8 -16 -76 -35 -152 -77
-298 -97 -345 -155 -358 -17 -4 -30 -12 -30 -19 0 -9 26 -11 108 -8 59 2 152
-1 208 -7 119 -13 161 -4 198 40 39 46 31 99 -15 99 -21 0 -28 -16 -22 -55 9
-54 -12 -61 -128 -40 -64 11 -119 15 -150 11 l-50 -7 14 28 c8 15 29 74 47
131 l33 102 47 0 c82 0 110 -9 110 -36 0 -42 27 -27 34 19 3 23 9 52 12 65 5
16 2 22 -9 22 -8 0 -17 -9 -20 -20 -5 -18 -14 -20 -86 -20 -45 0 -81 3 -81 6
0 6 17 73 41 167 l10 38 102 -3 102 -3 3 -33 c4 -38 23 -38 32 -1 14 52 19 89
12 87 -4 -1 -90 -5 -192 -8z"/>
<path d="M6239 1784 c-83 -89 -101 -132 -79 -189 15 -40 49 -75 72 -75 27 0
22 18 -12 35 -35 18 -50 43 -50 84 0 37 20 83 34 78 5 -2 39 -54 74 -115 58
-100 64 -115 54 -137 -16 -35 2 -31 32 8 14 17 47 50 75 71 27 22 55 49 61 62
17 31 5 74 -20 74 -23 0 -27 -25 -5 -34 27 -10 16 -34 -30 -66 -24 -17 -51
-40 -59 -52 -14 -20 -16 -18 -47 45 l-33 66 24 26 c15 16 32 24 42 22 23 -7
23 5 -2 34 -19 23 -19 23 -20 3 0 -19 -37 -64 -53 -64 -14 0 -58 90 -50 103
15 27 71 68 78 57 7 -12 25 -14 25 -2 0 4 -8 16 -18 28 -17 20 -18 20 -93 -62z"/>
<path d="M1518 1824 c-29 -15 -34 -27 -42 -114 -7 -68 -33 -95 -85 -86 -60 9
-86 50 -61 96 11 20 -8 44 -26 32 -38 -24 -11 -103 47 -134 43 -23 110 -23
139 0 17 14 24 33 30 89 9 81 13 91 47 104 17 6 32 5 54 -6 35 -18 37 -40 7
-72 -31 -33 -18 -37 25 -6 34 24 36 28 24 47 -21 32 -77 66 -106 66 -14 -1
-38 -7 -53 -16z"/>
<path d="M1638 1675 c-16 -9 -28 -24 -28 -35 0 -27 14 -25 34 5 22 33 55 40
102 20 l39 -17 -43 -15 c-44 -15 -126 -88 -172 -153 l-23 -32 54 7 c30 4 96
16 148 26 52 11 96 17 98 15 2 -2 -7 -12 -21 -23 -13 -11 -57 -50 -98 -88
l-73 -68 95 8 c217 16 357 66 336 120 -8 23 -24 18 -40 -14 -10 -18 -31 -35
-57 -45 -42 -17 -238 -51 -246 -43 -4 4 107 105 170 153 15 12 27 24 27 26 0
7 -130 -10 -208 -26 -120 -26 -125 -24 -67 34 32 32 72 59 109 74 l58 24 -37
27 c-44 34 -116 43 -157 20z"/>
<path d="M6064 1615 c-40 -31 -58 -75 -50 -118 9 -48 35 -67 97 -73 86 -8 96
-12 108 -42 16 -37 5 -77 -26 -101 -20 -16 -29 -18 -54 -9 -40 14 -64 -6 -35
-28 25 -18 40 -18 76 1 58 30 87 117 59 179 -15 32 -30 38 -108 45 -54 5 -67
10 -84 33 -17 23 -18 30 -7 57 16 40 45 49 74 22 35 -33 39 -25 10 19 -15 22
-27 40 -28 40 0 0 -15 -11 -32 -25z"/>
<path d="M3958 718 c-43 -11 -112 -68 -133 -109 -18 -34 -20 -102 -3 -132 6
-12 40 -53 75 -92 35 -38 67 -84 72 -102 18 -64 -17 -126 -91 -164 -75 -38
-149 -16 -169 51 -15 48 -31 64 -58 55 -29 -9 -36 -53 -14 -84 36 -48 70 -65
137 -69 151 -10 275 86 276 214 0 48 -26 91 -105 174 -59 62 -70 87 -61 135 8
39 61 90 104 99 67 15 107 -29 100 -111 -4 -55 19 -59 27 -5 3 20 10 56 16 79
5 23 9 44 9 46 0 8 -88 27 -117 26 -15 -1 -44 -5 -65 -11z"/>
</g>
</svg>
